<svg width="429" height="93" viewBox="0 0 429 93" fill="none" xmlns="http://www.w3.org/2000/svg">
<g clip-path="url(#clip0_1_2)">
<path d="M80.1656 61.275C80.1656 61.2096 80.1002 61.2096 80.1002 61.1441L74.6674 49.0348V48.9039C74.9292 46.9403 74.9292 43.602 74.6019 41.442L74.471 40.5256C74.471 40.3947 74.471 40.1983 74.4056 40.0674L74.1437 39.1511C73.8165 37.7765 73.2274 36.271 72.3764 34.5037C72.3764 34.5037 72.3764 34.4383 72.311 34.4383C68.7764 27.8272 62.4926 23.6381 54.0489 22.329C52.6089 22.1326 51.1688 22.0017 49.6634 22.0017C41.7432 22.0017 31.3358 25.2745 25.7721 34.4383C24.7248 36.1401 24.0702 37.5801 23.612 39.0201V39.0856V39.1511V39.2165V39.282C23.612 39.4129 23.4811 39.8056 23.4157 40.002C23.3502 40.1329 23.3502 40.1983 23.2848 40.3293C23.2193 40.5911 23.0884 41.2456 23.0229 41.3765C20.4047 51.064 22.8266 59.6386 30.2231 66.9697L30.4194 67.166C31.9249 68.6715 32.7758 70.7006 32.7758 72.8607V74.7589C32.7758 75.4789 33.3649 76.068 34.0849 76.068H42.7251C43.2487 76.068 43.7069 75.6098 43.7069 75.0862V57.7404C43.7069 57.2168 43.2487 56.7586 42.7251 56.7586C42.2014 56.7586 41.7432 57.2168 41.7432 57.7404V74.1043H34.7395V72.8607C34.7395 70.2424 33.6922 67.6897 31.8594 65.8569L31.5322 65.5951C24.7248 58.7877 22.4338 50.8021 24.7902 41.8347C24.7902 41.8347 24.9866 41.0493 25.0521 40.7874C25.183 40.5911 25.3793 39.9365 25.3793 39.6747C25.3793 39.6092 25.3793 39.5438 25.4448 39.5438C25.903 38.0383 26.623 36.6637 27.4085 35.3546C32.3176 27.1727 41.6778 23.8999 49.6634 23.8999C51.1034 23.8999 52.4779 24.0308 53.7216 24.2272C61.5763 25.4708 67.4018 29.3327 70.6091 35.3546C71.2637 36.7292 71.8528 38.2347 72.2455 39.6747L72.5073 40.5911C72.5073 40.6565 72.5073 40.6565 72.5073 40.722L72.7037 41.8347C73.031 43.6675 73.031 46.8748 72.7692 48.8385C72.7692 48.9039 72.7692 48.9039 72.7692 48.9694V49.493L78.3983 61.995C78.5947 62.4532 78.202 62.9769 77.7438 62.9769H73.8165C73.031 62.9769 72.3764 63.6314 72.3764 64.4169V77.5735C72.3764 78.3589 71.7219 79.0135 70.9364 79.0135L63.9981 80.4535C63.2127 80.4535 62.5581 81.1081 62.5581 81.8935V90.4027H55.358V53.224C55.358 52.5694 55.2271 51.9149 54.9653 51.3912L49.4015 39.9365C49.2052 39.6092 48.8779 39.4129 48.5506 39.4129C48.2233 39.4129 47.8306 39.6092 47.6997 39.9365L41.8741 52.1113C41.7432 52.4385 41.7432 52.7658 41.9396 53.0931C42.136 53.3549 42.4632 53.5513 42.7905 53.5513H49.2052C49.7288 53.5513 50.187 53.0931 50.187 52.5694C50.187 52.0458 49.7288 51.5876 49.2052 51.5876H44.296L46.9142 46.1548H50.2525L53.198 52.3076C53.3289 52.6349 53.3943 52.9622 53.3943 53.2895V91.2537C53.3943 91.7773 53.8525 92.2355 54.3762 92.2355H63.1472C63.8672 92.2355 64.4563 91.6464 64.4563 90.9264V82.2208L71.1328 80.8462C72.9001 80.7153 74.2746 79.2753 74.2746 77.508V64.8751H77.6129C78.0711 64.8751 78.5293 64.7442 78.922 64.5478C80.1656 63.8278 80.6238 62.4532 80.1656 61.275ZM47.8306 44.1257L48.5506 42.6202L49.2706 44.1257H47.8306Z" fill="#EA2088"/>
<path d="M109.659 38.503V44.5596H102.308V38.503H109.659ZM109.659 48.7008V75.4636H102.308V48.7008H109.659ZM128.294 47.9761C131.918 47.9761 134.868 48.8992 137.146 50.7455C139.424 52.5919 140.666 55.0506 140.873 58.1221H133.678C133.195 55.0506 131.383 53.515 128.242 53.515C126.31 53.515 124.783 54.3087 123.661 55.8962C122.54 57.4837 121.979 59.5889 121.979 62.2116C121.979 64.7309 122.514 66.767 123.584 68.3199C124.653 69.8729 126.155 70.6494 128.087 70.6494C131.435 70.6494 133.384 68.8376 133.937 65.214H141.029C140.545 68.7685 139.174 71.4864 136.913 73.3671C134.653 75.2477 131.728 76.1883 128.139 76.1883C124.17 76.1883 120.926 74.92 118.407 72.3835C115.888 69.847 114.628 66.5428 114.628 62.4704C114.628 58.053 115.871 54.5332 118.355 51.9103C120.84 49.2873 124.153 47.9761 128.294 47.9761ZM158.163 47.9761C162.442 47.9761 165.824 49.2789 168.309 51.8844C170.794 54.4899 172.036 57.898 172.036 62.1081C172.036 66.3528 170.768 69.7606 168.231 72.3317C165.695 74.9029 162.339 76.1883 158.163 76.1883C153.918 76.1883 150.553 74.8855 148.069 72.28C145.584 69.6745 144.342 66.284 144.342 62.1081C144.342 57.7942 145.61 54.3603 148.146 51.8067C150.683 49.2531 154.022 47.9761 158.163 47.9761ZM151.692 62.1081C151.692 64.8343 152.244 66.9393 153.349 68.4235C154.453 69.9076 156.058 70.6494 158.163 70.6494C160.337 70.6494 161.968 69.8901 163.055 68.3717C164.142 66.8532 164.685 64.7654 164.685 62.1081C164.685 59.3471 164.125 57.2248 163.003 55.7409C161.881 54.257 160.251 53.515 158.111 53.515C156.041 53.515 154.453 54.2569 153.349 55.7409C152.244 57.2249 151.692 59.3471 151.692 62.1081ZM192.173 47.9761C195.589 47.9761 198.065 48.839 199.601 50.5644C201.137 52.2897 201.905 55.0335 201.905 58.7951V75.4636H194.554V60.2963C194.554 58.0876 194.2 56.4483 193.493 55.3785C192.785 54.3088 191.569 53.7738 189.843 53.7738C187.842 53.7738 186.392 54.3778 185.495 55.5856C184.598 56.7934 184.149 58.7777 184.149 61.5386V75.4636H176.798V48.7008H183.787V52.4279H183.942C185.771 49.4599 188.515 47.9761 192.173 47.9761ZM247.976 38.503V75.4636H240.988V72.047H240.884C239.297 74.8079 236.588 76.1883 232.757 76.1883C229.064 76.1883 226.14 74.8424 223.983 72.1506C221.826 69.4588 220.747 66.0252 220.747 61.8492C220.747 57.7771 221.843 54.4468 224.035 51.8585C226.226 49.2702 229.082 47.9761 232.602 47.9761C234.224 47.9761 235.751 48.3126 237.183 48.9855C238.615 49.6585 239.728 50.6506 240.522 51.962H240.625V38.503H247.976ZM228.098 62.0563C228.098 64.5065 228.676 66.5514 229.832 68.1905C230.988 69.8297 232.567 70.6494 234.569 70.6494C236.674 70.6494 238.253 69.8815 239.305 68.3458C240.358 66.8101 240.884 64.6963 240.884 62.0045C240.884 59.3127 240.332 57.2248 239.228 55.7409C238.123 54.257 236.553 53.515 234.517 53.515C232.412 53.515 230.816 54.2915 229.729 55.8444C228.642 57.3974 228.098 59.468 228.098 62.0563ZM261.073 38.503V44.5596H253.722V38.503H261.073ZM261.073 48.7008V75.4636H253.722V48.7008H261.073ZM277.431 38.503C278.052 38.503 279.346 38.572 281.313 38.7101V44.1972C280.347 44.0937 279.467 44.042 278.673 44.042C277.603 44.042 276.861 44.2749 276.447 44.7408C276.033 45.2067 275.826 46.009 275.826 47.1479V48.7008H280.899V53.6186H275.826V75.4636H268.475V53.6186H264.075V48.7008H268.475V46.7338C268.475 44.1111 269.26 42.0834 270.83 40.6513C272.401 39.2192 274.601 38.503 277.431 38.503ZM293.737 38.503C294.358 38.503 295.652 38.572 297.619 38.7101V44.1972C296.653 44.0937 295.773 44.042 294.979 44.042C293.909 44.042 293.167 44.2749 292.753 44.7408C292.339 45.2067 292.132 46.009 292.132 47.1479V48.7008H297.205V53.6186H292.132V75.4636H284.781V53.6186H280.381V48.7008H284.781V46.7338C284.781 44.1111 285.566 42.0834 287.137 40.6513C288.707 39.2192 290.907 38.503 293.737 38.503ZM307.765 48.7008V63.8681C307.765 65.9387 308.093 67.5434 308.749 68.6823C309.404 69.8211 310.647 70.3905 312.476 70.3905C314.512 70.3905 315.97 69.7866 316.85 68.5787C317.73 67.3709 318.17 65.4384 318.17 62.781V48.7008H325.521V75.4636H318.532V71.7364H318.377C316.548 74.7044 313.804 76.1883 310.146 76.1883C306.661 76.1883 304.167 75.2996 302.666 73.5223C301.165 71.7451 300.414 69.0102 300.414 65.3175V48.7008H307.765ZM342.086 47.9761C345.675 47.9761 348.479 48.7008 350.498 50.1503C352.516 51.5997 353.647 53.7221 353.888 56.5174H346.9C346.796 55.2405 346.33 54.3174 345.502 53.748C344.674 53.1786 343.466 52.8938 341.879 52.8938C340.498 52.8938 339.472 53.1009 338.799 53.515C338.126 53.9292 337.789 54.5503 337.789 55.3786C337.789 55.9998 338.013 56.5174 338.462 56.9316C338.911 57.3457 339.592 57.708 340.507 58.0186C341.421 58.3292 342.431 58.5881 343.535 58.7951C346.883 59.4508 349.246 60.1238 350.627 60.814C352.008 61.5042 353.017 62.3324 353.655 63.2987C354.294 64.265 354.613 65.4556 354.613 66.8705C354.613 69.8729 353.517 72.1765 351.326 73.7812C349.135 75.386 346.158 76.1883 342.396 76.1883C338.462 76.1883 335.399 75.3428 333.208 73.6518C331.017 71.9608 329.886 69.6659 329.817 66.767H336.806C336.806 68.1474 337.341 69.2432 338.41 70.0541C339.48 70.8651 340.826 71.2706 342.448 71.2706C343.829 71.2706 344.976 70.9687 345.891 70.3647C346.805 69.7608 347.262 68.9239 347.262 67.854C347.262 67.1638 346.978 66.5944 346.408 66.1458C345.839 65.6971 345.036 65.3002 344.001 64.9551C342.966 64.61 341.361 64.2131 339.187 63.7644C337.461 63.4193 335.926 62.9534 334.58 62.3668C333.234 61.7801 332.207 61.0123 331.5 60.0633C330.792 59.1143 330.439 57.9495 330.439 56.5691C330.439 54.8091 330.861 53.2734 331.707 51.962C332.552 50.6505 333.846 49.6584 335.589 48.9855C337.332 48.3125 339.497 47.9761 342.086 47.9761ZM366.467 38.503V44.5596H359.117V38.503H366.467ZM366.467 48.7008V75.4636H359.117V48.7008H366.467ZM385.258 47.9761C389.537 47.9761 392.919 49.2789 395.404 51.8844C397.889 54.4899 399.131 57.898 399.131 62.1081C399.131 66.3528 397.863 69.7606 395.327 72.3317C392.79 74.9029 389.434 76.1883 385.258 76.1883C381.013 76.1883 377.649 74.8855 375.164 72.28C372.679 69.6745 371.437 66.284 371.437 62.1081C371.437 57.7942 372.705 54.3603 375.242 51.8067C377.778 49.2531 381.117 47.9761 385.258 47.9761ZM378.787 62.1081C378.787 64.8343 379.34 66.9393 380.444 68.4235C381.548 69.9076 383.153 70.6494 385.258 70.6494C387.432 70.6494 389.063 69.8901 390.15 68.3717C391.237 66.8532 391.781 64.7654 391.781 62.1081C391.781 59.3471 391.22 57.2248 390.098 55.7409C388.977 54.257 387.346 53.515 385.206 53.515C383.136 53.515 381.548 54.2569 380.444 55.7409C379.34 57.2249 378.787 59.3471 378.787 62.1081ZM419.268 47.9761C422.685 47.9761 425.161 48.839 426.696 50.5644C428.232 52.2897 429 55.0335 429 58.7951V75.4636H421.649V60.2963C421.649 58.0876 421.296 56.4483 420.588 55.3785C419.881 54.3088 418.664 53.7738 416.939 53.7738C414.937 53.7738 413.488 54.3778 412.59 55.5856C411.693 56.7934 411.244 58.7777 411.244 61.5386V75.4636H403.894V48.7008H410.882V52.4279H411.037C412.866 49.4599 415.61 47.9761 419.268 47.9761Z" fill="#228be6"/>
</g>
<defs>
<clipPath id="clip0_1_2">
<rect width="429" height="92.2355" fill="white"/>
</clipPath>
</defs>
</svg>
