<?xml version="1.0" standalone="no"?>
<!DOCTYPE svg PUBLIC "-//W3C//DTD SVG 20010904//EN"
 "http://www.w3.org/TR/2001/REC-SVG-20010904/DTD/svg10.dtd">
<svg version="1.0" xmlns="http://www.w3.org/2000/svg"
 width="700.000000pt" height="700.000000pt" viewBox="0 0 700.000000 700.000000"
 preserveAspectRatio="xMidYMid meet">
<metadata>
Created by potrace 1.14, written by Peter Selinger 2001-2017
</metadata>
<g transform="translate(0.000000,700.000000) scale(0.100000,-0.100000)"
fill="#000000" stroke="none">
<path d="M2620 6974 c-410 -104 -712 -236 -1009 -442 -291 -201 -528 -454
-712 -759 -113 -189 -203 -391 -214 -484 -3 -22 -12 -56 -20 -77 -31 -82 -107
-427 -120 -552 -20 -181 -24 -359 -12 -520 10 -126 16 -168 47 -315 98 -457
346 -897 730 -1295 151 -157 196 -219 238 -332 37 -100 48 -169 50 -337 3
-179 9 -206 61 -255 54 -52 66 -53 569 -52 523 1 501 -2 552 74 l24 37 1 894
c0 930 0 936 -42 983 -28 32 -86 54 -131 50 -54 -5 -118 -59 -131 -110 -6 -22
-10 -330 -10 -777 0 -407 0 -763 -1 -790 l0 -50 -284 0 c-157 0 -287 2 -289 5
-3 3 -7 46 -8 95 -9 267 -121 527 -302 702 -445 431 -704 922 -764 1448 -10
90 -10 389 0 480 4 39 10 88 12 111 3 23 12 74 21 115 8 41 18 88 21 104 3 17
9 37 13 45 4 8 11 31 14 50 12 76 112 380 136 415 4 6 25 44 46 85 262 509
737 896 1339 1091 79 26 179 54 225 64 8 2 37 8 63 14 26 6 66 14 89 16 22 3
44 7 47 9 3 2 33 7 66 11 33 4 92 10 130 15 111 12 450 9 570 -6 538 -67 1006
-266 1334 -569 271 -250 434 -514 551 -895 72 -234 98 -518 75 -825 -16 -205
-28 -159 164 -585 201 -446 214 -476 248 -550 102 -224 144 -323 138 -328 -3
-4 -104 -7 -223 -8 -237 -1 -261 -6 -316 -60 -62 -62 -59 -33 -60 -791 l-1
-693 -25 -23 c-20 -19 -63 -32 -230 -66 -113 -23 -216 -45 -230 -47 -14 -3
-68 -14 -122 -25 -119 -25 -113 -24 -173 -34 -87 -14 -142 -50 -177 -119 -19
-38 -20 -59 -21 -458 l0 -418 -301 2 -300 3 -1 1860 c-1 1379 -4 1872 -13
1906 -6 26 -62 149 -123 275 -61 126 -144 297 -184 379 -232 480 -279 573
-301 602 -48 63 -154 72 -213 20 -20 -19 -132 -237 -256 -502 -18 -38 -63
-133 -100 -210 -37 -77 -86 -180 -110 -230 -23 -49 -70 -147 -103 -216 -64
-132 -74 -180 -53 -234 17 -41 68 -83 114 -92 21 -5 188 -8 371 -7 325 1 334
1 372 23 59 34 78 66 79 133 0 61 -17 93 -69 132 -25 19 -45 21 -252 26 l-225
5 86 175 c46 96 93 191 102 210 l18 35 123 0 c68 0 127 -2 131 -5 4 -3 23 -39
43 -80 20 -41 73 -151 118 -245 45 -93 94 -195 108 -225 l25 -55 1 -1935 c1
-1835 2 -1937 19 -1963 l17 -27 565 0 564 0 20 26 c11 14 24 42 27 63 4 20 7
222 7 449 1 409 1 413 21 417 17 4 96 20 201 41 11 2 31 6 45 9 43 9 60 13
263 54 206 41 248 57 322 123 48 41 101 133 114 196 7 36 11 256 11 672 l0
618 183 4 c158 4 188 7 227 25 110 51 187 162 193 278 4 67 -7 109 -51 205
-17 36 -60 133 -97 215 -94 211 -87 194 -259 577 -128 286 -155 353 -150 380
2 18 6 139 8 268 4 209 0 293 -19 435 -3 22 -8 63 -11 90 -3 28 -25 118 -50
202 -214 744 -757 1297 -1521 1552 -82 28 -159 52 -173 55 -14 3 -63 14 -110
25 -80 19 -118 20 -695 20 l-610 -1 -95 -24z"/>
</g>
</svg>
